<?xml version="1.0" encoding="UTF-8"?>
<svg id="Layer_1" xmlns="http://www.w3.org/2000/svg" xmlns:xlink="http://www.w3.org/1999/xlink" version="1.1" viewBox="0 0 562.5 515.6">
  <!-- Generator: Adobe Illustrator 29.1.0, SVG Export Plug-In . SVG Version: 2.1.0 Build 142)  -->
  <defs>
    <style>
      .st0 {
        fill: none;
      }

      .st1 {
        fill: #231f20;
      }

      .st2 {
        fill: url(#linear-gradient);
      }

      .st3 {
        fill: #3e8cee;
      }

      .st4 {
        fill: #232423;
      }

      .st5 {
        clip-path: url(#clippath);
      }
    </style>
    <clipPath id="clippath">
      <path class="st0" d="M83.1,337.4s50,3.4,94.6-50.2c0,0,14.3-15.4,26.2-62.7,0,0,4.5-43.2,40.3-69.5,0,0,33.3-32.4,78.1-9.3,0,0,30.1,13.6,66.1,58.8,0,0,17.4,21.1,30,38.3L278.4,0,83.1,337.4Z"/>
    </clipPath>
    <linearGradient id="linear-gradient" x1="63.6" y1="230.3" x2="270.4" y2="164" gradientUnits="userSpaceOnUse">
      <stop offset="0" stop-color="#3dd3ec"/>
      <stop offset="1" stop-color="#3d90ec"/>
    </linearGradient>
  </defs>
  <g>
    <path class="st3" d="M471.2,334.7L278.4,0,84.2,335.8l-1.2,1.5s61.5,7.9,112.7-50c0,0,17.2-19.7,30.3-52.9,0,0,18.1-43.9,44.3-45.9,0,0,20.6-5.2,37.3,21.5,0,0,5.9,6.3,29.6,54.5,0,0,19,46.8,57.2,62.9,0,0,31.2,17.7,75.1,10.3,0,0,1.9,1,1.4-3.1"/>
    <g class="st5">
      <rect class="st2" x="83.1" y="0" width="335.2" height="340.8"/>
    </g>
  </g>
  <g>
    <path class="st4" d="M20.7,509.5H7.1l-2.3,5.6H1.3l12-28.1h1.2l12,28.1h-3.5l-2.3-5.6ZM13.9,493l-5.5,13.6h11.1l-5.5-13.6Z"/>
    <path class="st4" d="M50.9,487.5h17.3v2.9h-14v9.5h11.7v3h-11.7v12.2h-3.3v-27.7Z"/>
    <path class="st4" d="M109.9,515.1l-8.6-11.6h-5.9v11.6h-3.3v-27.7h9.7c5.4,0,8.8,3.4,8.8,8s-2.2,6.6-5.8,7.7l8.8,12h-3.8ZM95.4,500.6h6.3c3.6,0,5.6-2,5.6-5.1s-2.1-5.1-5.6-5.1h-6.3v10.2Z"/>
    <path class="st4" d="M137.5,487.5h3.3v27.7h-3.3v-27.7Z"/>
    <path class="st4" d="M180.2,487c4.9,0,9.1,2.3,11.5,6l-2.4,1.9c-2.1-3.1-5.2-4.9-9-4.9-6.2,0-11,4.9-11,11.3s4.8,11.3,11,11.3,6.9-1.8,9-4.9l2.4,1.9c-2.3,3.6-6.6,6-11.5,6-7.8.1-14.5-6.4-14.4-14.3-.2-7.9,6.5-14.4,14.4-14.3Z"/>
    <path class="st4" d="M233.3,509.5h-13.6l-2.3,5.6h-3.4l12-28.1h1.2l12,28.1h-3.5l-2.3-5.6ZM226.5,493l-5.5,13.6h11.1l-5.5-13.6Z"/>
    <path class="st4" d="M255,487.5h3.8l-1.8,10.8h-2.6l.6-10.8Z"/>
    <path class="st4" d="M278.9,507.8c2.1,3.1,4.7,4.7,7.7,4.7s5.6-1.8,5.6-4.6-1.5-3.4-4.6-4.9l-3.1-1.5c-3.8-1.8-6.2-3.7-6.2-7.4s3.8-7.2,8.3-7.2,6.9,1.9,8.7,4.7l-2.4,1.8c-1.5-2.2-3.8-3.5-6.3-3.5s-4.9,1.5-4.9,4,.2,1.5.5,2c.7,1,1.7,1.6,3.9,2.6l3.1,1.5c4.4,2.1,6.5,4.1,6.5,7.7s-3.8,7.7-8.9,7.7-8-2.3-10.2-6l2.4-1.8Z"/>
    <path class="st4" d="M367.7,487v28.1h-3.3v-19.8l-8.8,12h-1.2l-8.9-12.1v19.9h-3.3v-28.1h1.2l11.5,16,11.6-16h1.1Z"/>
    <path class="st4" d="M407.1,487c7.8-.1,14.5,6.4,14.4,14.3.2,7.9-6.6,14.4-14.4,14.3-7.8.2-14.5-6.5-14.3-14.3-.2-7.9,6.5-14.4,14.3-14.3ZM407.1,490c-6.2,0-11,4.8-11,11.2s4.7,11.3,11,11.3c6.1,0,11.1-5,10.9-11.3.1-6.2-4.9-11.4-10.9-11.2Z"/>
    <path class="st4" d="M468.6,487.5v28.1h-1.2l-17.6-21.2v20.7h-3.3v-28.1h1.2l17.6,21.3v-20.8h3.3Z"/>
    <path class="st4" d="M495.5,487.5h17.7v2.9h-14.5v8.5h11.1v2.9h-11.1v10.4h15v2.9h-18.2v-27.7Z"/>
    <path class="st4" d="M549.3,503.7v11.4h-3.3v-11.4l-9.6-16.2h3.7l7.5,13,7.6-13h3.6l-9.6,16.2Z"/>
  </g>
  <g>
    <g>
      <path class="st1" d="M243.3,421c-1-1-2.7-1-3.8,0-1,1-1,2.7,0,3.8l18,18c.5.5,1.2.8,1.9.8s1.4-.3,1.9-.8c1-1,1-2.7,0-3.8l-18-18Z"/>
      <path class="st1" d="M262.1,400c0-8.9-7.3-16.2-16.2-16.2h-45.6c-8.9,0-16.2,7.3-16.2,16.2v40.7c0,1.5,1.2,2.7,2.7,2.7s2.7-1.2,2.7-2.7v-40.7c0-6,4.9-10.9,10.9-10.9h45.6c6,0,10.9,4.9,10.9,10.9s-4.9,10.9-10.9,10.9h-44.7c-1.5,0-2.7,1.2-2.7,2.7s1.2,2.7,2.7,2.7h44.7c8.9,0,16.2-7.3,16.2-16.2"/>
    </g>
    <path class="st1" d="M360.5,443.8c-6,0-11-2.8-13.9-7.6l-12.4-24.1c-2.1-4-8.4-16.2-9.6-18.3-2.6-4.4-6.9-5-9.3-5-6.2,0-11.1,4.6-11.1,10.5s0,41.8,0,41.8c0,1.5-1.2,2.7-2.7,2.7s-2.7-1.2-2.7-2.7v-41.8c0,0,0-.2,0-.3.1-8.6,7.4-15.6,16.4-15.6s11,2.8,13.9,7.6c.9,1.5,4,7.4,9.8,18.5l12.4,24c2.5,4.2,6.8,4.9,9.2,4.9,6.2,0,11.1-4.6,11.1-10.5s0-1.2,0-1.7v-40c0-1.5,1.2-2.7,2.7-2.7s2.7,1.2,2.7,2.7v41.8c0,0,0,.2,0,.3-.1,8.6-7.4,15.6-16.4,15.6"/>
    <path class="st1" d="M75.6,443.5c-1,0-1.9-.5-2.4-1.5-.2-.3-15.7-30.7-22.7-43.7-3.4-5.9-5.6-9.2-11.3-9.2h0c-5.8,0-8,3.3-11.4,9.2-7,12.9-22.5,43.3-22.7,43.6-.7,1.3-2.3,1.8-3.6,1.2-1.3-.7-1.8-2.3-1.2-3.6.2-.3,15.7-30.8,22.8-43.8,3.2-5.6,6.9-12,16-12,0,0,0,0,0,0h0c9.1,0,12.8,6.3,16,11.9,7.1,13.1,22.7,43.6,22.8,43.9.7,1.3.1,2.9-1.2,3.6-.4.2-.8.3-1.2.3"/>
    <g>
      <path class="st1" d="M467.9,443.5h-59.1c-8.7,0-15.8-6.9-16.2-15.6h0v-27.9c0-.5,0-.9,0-1.4.7-8.3,7.8-14.9,16.2-14.9h59.1c1.5,0,2.7,1.2,2.7,2.6s-1.2,2.7-2.7,2.7h-59.1c-5.6,0-10.4,4.4-10.9,10,0,.3,0,.6,0,.9v27.2c0,6,4.9,10.9,10.9,10.9h59.1c1.5,0,2.7,1.2,2.7,2.7s-1.2,2.7-2.7,2.7M392.6,427.2h0,0Z"/>
      <path class="st1" d="M448.5,416.3h-28.6c-1.5,0-2.7-1.2-2.7-2.7s1.2-2.7,2.7-2.7h28.6c1.5,0,2.7,1.2,2.7,2.7s-1.2,2.7-2.7,2.7"/>
    </g>
    <path class="st1" d="M280.5,443.5c-1.5,0-2.7-1.2-2.7-2.7v-54.3c0-1.5,1.2-2.7,2.7-2.7s2.7,1.2,2.7,2.7v54.3c0,1.5-1.2,2.7-2.7,2.7"/>
    <g>
      <path class="st1" d="M522,443.5c-1.5,0-2.7-1.2-2.7-2.7v-41.4c0-1.5,1.2-2.7,2.7-2.7s2.7,1.2,2.7,2.7v41.4c0,1.5-1.2,2.7-2.7,2.7"/>
      <path class="st1" d="M559.9,402.7c-1.5,0-2.7-1.2-2.7-2.7,0-2.9-1.2-5.7-3.2-7.8-2.1-2-4.8-3.2-7.7-3.2h-45.6c-6,0-10.9,4.9-10.9,11s-1.2,2.7-2.7,2.7-2.7-1.2-2.7-2.7c0-9,7.3-16.3,16.2-16.3h45.6c4.3,0,8.4,1.7,11.4,4.7,3.1,3.1,4.8,7.2,4.8,11.6s-1.2,2.7-2.7,2.7"/>
    </g>
    <g>
      <path class="st1" d="M96.6,443.5c-1.5,0-2.7-1.2-2.7-2.7v-40.7c0-.5,0-.9,0-1.4.7-8.3,7.8-14.9,16.2-14.9h59.1c1.5,0,2.7,1.2,2.7,2.6s-1.2,2.7-2.7,2.7h-59.1c-5.6,0-10.4,4.4-10.9,10,0,.3,0,.6,0,.9v40.7c0,1.5-1.2,2.7-2.7,2.7"/>
      <path class="st1" d="M149.9,416.4h-28.6c-1.5,0-2.7-1.2-2.7-2.7s1.2-2.7,2.7-2.7h28.6c1.5,0,2.7,1.2,2.7,2.7s-1.2,2.7-2.7,2.7"/>
    </g>
  </g>
</svg>