<?xml version="1.0" encoding="utf-8"?>
<!-- Generator: Adobe Illustrator 23.0.3, SVG Export Plug-In . SVG Version: 6.00 Build 0)  -->
<svg version="1.1" id="Слой_1" xmlns="http://www.w3.org/2000/svg" xmlns:xlink="http://www.w3.org/1999/xlink" x="0px" y="0px"
	 width="180px" height="40px" viewBox="0 0 180 40" style="enable-background:new 0 0 180 40;" xml:space="preserve">
<style type="text/css">
	.st0{fill:#D73434;}
</style>
<g>
	<g>
		<path class="st0" d="M11.6,1.6H15l6.7,17.7H18l-1.5-4.5H10l-1.5,4.5H4.9L11.6,1.6z M15.6,12.1l-2.3-6.9L11,12.1H15.6z"/>
		<path class="st0" d="M21.1,6.9h3.6l3.3,8.9l3.4-8.9h3.4l-5.3,12.4h-3.2L21.1,6.9z"/>
		<path class="st0" d="M47.6,17.5c-0.1,0.1-0.2,0.2-0.4,0.4c-0.2,0.2-0.6,0.5-1,0.7c-0.5,0.3-1,0.5-1.7,0.7S43,19.6,42,19.6
			s-1.9-0.2-2.7-0.5s-1.5-0.8-2.1-1.4s-1-1.3-1.3-2.1c-0.3-0.8-0.5-1.8-0.5-2.7s0.2-1.8,0.5-2.6c0.3-0.8,0.7-1.5,1.3-2.1
			s1.2-1,2-1.4c0.8-0.3,1.6-0.5,2.6-0.5c1.1,0,2.1,0.2,2.9,0.6c0.8,0.4,1.4,1,1.9,1.6c0.5,0.7,0.8,1.4,1,2.3
			c0.2,0.9,0.3,1.7,0.3,2.6V14h-9.3c0,0.5,0.1,0.9,0.3,1.3c0.2,0.4,0.5,0.7,0.8,1s0.7,0.5,1.1,0.6c0.4,0.1,0.8,0.2,1.2,0.2
			c0.6,0,1.1-0.1,1.6-0.2s0.8-0.2,1.1-0.4s0.6-0.3,0.8-0.5c0.2-0.2,0.3-0.3,0.5-0.4L47.6,17.5z M44.6,11.8c0-0.3-0.1-0.6-0.2-1
			c-0.1-0.3-0.3-0.6-0.5-0.9c-0.2-0.3-0.5-0.5-0.9-0.6c-0.4-0.2-0.8-0.2-1.3-0.2s-1,0.1-1.4,0.2c-0.4,0.2-0.7,0.4-1,0.6
			c-0.3,0.3-0.5,0.5-0.6,0.9c-0.1,0.3-0.2,0.6-0.2,1H44.6z"/>
		<path class="st0" d="M50.2,6.9h3l0.1,1.4c0.2-0.2,0.3-0.4,0.6-0.6c0.2-0.2,0.5-0.4,0.8-0.5c0.3-0.2,0.7-0.3,1-0.4
			C56,6.7,56.5,6.6,57,6.6c1.5,0,2.7,0.5,3.5,1.4s1.2,2.2,1.2,3.8v7.5h-3.1v-7.5c0-0.8-0.2-1.4-0.6-1.8c-0.4-0.4-1-0.6-1.7-0.6
			c-0.4,0-0.8,0.1-1.2,0.2c-0.4,0.2-0.7,0.4-1,0.7s-0.5,0.6-0.6,1c-0.2,0.4-0.2,0.8-0.2,1.3v6.7h-3.1L50.2,6.9L50.2,6.9z"/>
		<path class="st0" d="M65.8,9.4h-2.1V6.9h2.1v-4h3.1v4h3.3v2.5h-3.3v5.4c0,0.7,0.1,1.3,0.3,1.6c0.2,0.4,0.6,0.6,1.1,0.6
			s0.9-0.1,1.2-0.2c0.3-0.1,0.6-0.3,0.8-0.5l1.3,1.9c-0.6,0.5-1.2,0.9-1.8,1.1c-0.6,0.2-1.3,0.3-2,0.3c-0.8,0-1.4-0.1-1.9-0.3
			c-0.5-0.2-1-0.5-1.3-0.9s-0.6-0.9-0.7-1.5s-0.2-1.2-0.2-1.9L65.8,9.4L65.8,9.4z"/>
		<path class="st0" d="M75.1,6.9h3.1v7.5c0,0.8,0.2,1.4,0.6,1.8s1,0.6,1.7,0.6c0.4,0,0.8-0.1,1.2-0.2c0.4-0.2,0.7-0.4,1-0.7
			s0.5-0.6,0.6-1c0.2-0.4,0.2-0.8,0.2-1.3V6.9h3.1v12.4h-3l-0.1-1.4c-0.2,0.2-0.3,0.4-0.6,0.6c-0.2,0.2-0.5,0.4-0.8,0.5
			c-0.3,0.2-0.6,0.3-1,0.4s-0.8,0.2-1.3,0.2c-1.5,0-2.7-0.5-3.5-1.4s-1.2-2.2-1.2-3.8L75.1,6.9L75.1,6.9z"/>
		<path class="st0" d="M91,15.7c0.4,0.4,0.9,0.7,1.5,1c0.6,0.2,1.3,0.4,2,0.4s1.2-0.1,1.6-0.3c0.4-0.2,0.6-0.5,0.6-0.9
			c0-0.2,0-0.3-0.1-0.5s-0.2-0.3-0.5-0.4c-0.2-0.1-0.6-0.3-1-0.4c-0.4-0.1-1-0.3-1.7-0.5c-0.4-0.1-0.9-0.2-1.3-0.4
			c-0.5-0.2-0.9-0.4-1.3-0.7s-0.7-0.7-1-1.1c-0.3-0.4-0.4-1-0.4-1.5c0-0.6,0.2-1.2,0.5-1.7s0.7-0.9,1.2-1.2c0.5-0.3,1-0.6,1.7-0.7
			c0.6-0.2,1.2-0.3,1.8-0.3c1.1,0,2,0.1,2.8,0.3c0.8,0.2,1.5,0.6,2.1,1L98,10c-0.3-0.2-0.8-0.5-1.3-0.7C96.1,9.1,95.5,9,94.8,9
			s-1.3,0.1-1.5,0.3c-0.3,0.2-0.4,0.5-0.4,0.8c0,0.4,0.2,0.7,0.7,0.9s1.3,0.5,2.3,0.7c0.6,0.1,1.2,0.3,1.7,0.5s0.9,0.5,1.3,0.8
			s0.6,0.7,0.8,1.1c0.2,0.4,0.3,1,0.3,1.5c0,0.6-0.1,1.1-0.4,1.6s-0.7,0.9-1.1,1.2c-0.5,0.3-1,0.6-1.7,0.8c-0.6,0.2-1.3,0.3-2.1,0.3
			c-1.2,0-2.2-0.2-3.1-0.5s-1.7-0.8-2.3-1.4L91,15.7z"/>
		<path d="M116.9,9.9h6.3v7.3c-0.7,0.7-1.6,1.2-2.7,1.7s-2.6,0.7-4.3,0.7c-1.4,0-2.7-0.2-3.9-0.7c-1.1-0.5-2.1-1.1-2.9-1.9
			s-1.4-1.8-1.8-2.9s-0.6-2.3-0.6-3.6s0.2-2.5,0.7-3.6s1.1-2.1,1.9-3s1.8-1.5,2.9-2s2.3-0.7,3.7-0.7c0.9,0,1.7,0.1,2.4,0.3
			c0.7,0.2,1.4,0.4,2,0.7s1.1,0.7,1.6,1.1s0.9,0.9,1.2,1.4l-2.3,2.1c-0.6-0.8-1.2-1.5-2-2s-1.7-0.7-2.8-0.7c-0.9,0-1.7,0.2-2.3,0.5
			c-0.7,0.3-1.3,0.8-1.8,1.4s-0.9,1.3-1.1,2c-0.3,0.8-0.4,1.6-0.4,2.4c0,1,0.2,1.8,0.5,2.6c0.3,0.7,0.7,1.4,1.3,2
			c0.5,0.6,1.2,1,1.9,1.3c0.7,0.3,1.5,0.4,2.3,0.4c1.6,0,2.9-0.4,3.8-1.2v-2.7h-3.1L116.9,9.9L116.9,9.9z"/>
		<path d="M126.4,6.9h3l0.1,1.6c0.1-0.2,0.3-0.4,0.5-0.6c0.2-0.2,0.5-0.4,0.8-0.6s0.6-0.3,1-0.5s0.9-0.2,1.4-0.2
			c0.3,0,0.6,0,0.8,0.1s0.5,0.1,0.7,0.2l-0.6,2.9c-0.2-0.1-0.4-0.2-0.6-0.2c-0.2,0-0.5-0.1-0.8-0.1c-0.4,0-0.8,0.1-1.2,0.2
			s-0.7,0.3-1,0.6s-0.5,0.6-0.7,1s-0.2,0.8-0.2,1.3v6.7h-3.1L126.4,6.9L126.4,6.9z"/>
		<path d="M136,13c0-0.9,0.2-1.8,0.5-2.6s0.8-1.5,1.4-2.1c0.6-0.6,1.3-1.1,2.1-1.4s1.7-0.5,2.7-0.5s1.9,0.2,2.7,0.5s1.5,0.8,2.1,1.4
			s1,1.3,1.4,2.1c0.3,0.8,0.5,1.7,0.5,2.6c0,0.9-0.2,1.8-0.5,2.6c-0.3,0.8-0.8,1.5-1.4,2.1c-0.6,0.6-1.3,1.1-2.1,1.4
			s-1.7,0.5-2.7,0.5s-1.9-0.2-2.7-0.5s-1.5-0.8-2.1-1.4s-1-1.3-1.4-2.1C136.1,14.8,136,13.9,136,13z M142.6,17
			c0.6,0,1.1-0.1,1.6-0.3c0.5-0.2,0.8-0.6,1.1-0.9c0.3-0.4,0.5-0.8,0.6-1.3s0.2-0.9,0.2-1.4c0-0.4-0.1-0.9-0.2-1.4
			c-0.1-0.5-0.3-0.9-0.6-1.3c-0.3-0.4-0.7-0.7-1.1-0.9c-0.5-0.2-1-0.3-1.6-0.3s-1.1,0.1-1.6,0.3s-0.8,0.6-1.1,0.9s-0.5,0.8-0.6,1.3
			s-0.2,0.9-0.2,1.4s0.1,0.9,0.2,1.4c0.1,0.5,0.3,0.9,0.6,1.3c0.3,0.4,0.7,0.7,1.1,0.9C141.5,16.9,142,17,142.6,17z"/>
		<path d="M151.7,6.9h3.1v7.5c0,0.8,0.2,1.4,0.6,1.8c0.4,0.4,1,0.6,1.7,0.6c0.4,0,0.8-0.1,1.2-0.2c0.4-0.2,0.7-0.4,1-0.7
			s0.5-0.6,0.6-1c0.2-0.4,0.2-0.8,0.2-1.3V6.9h3.1v12.4h-3l-0.1-1.4c-0.2,0.2-0.3,0.4-0.6,0.6c-0.2,0.2-0.5,0.4-0.8,0.5
			c-0.3,0.2-0.6,0.3-1,0.4s-0.8,0.2-1.3,0.2c-1.5,0-2.7-0.5-3.5-1.4s-1.2-2.2-1.2-3.8V6.9L151.7,6.9z"/>
		<path d="M166.4,6.9h3l0.1,1.4c0.2-0.2,0.3-0.4,0.6-0.6c0.2-0.2,0.5-0.4,0.9-0.5c0.3-0.2,0.7-0.3,1.1-0.4c0.4-0.1,0.9-0.2,1.4-0.2
			c1,0,1.8,0.2,2.5,0.6s1.3,0.9,1.7,1.5c0.5,0.6,0.8,1.3,1,2.1s0.3,1.6,0.3,2.4c0,1-0.1,1.8-0.4,2.5c-0.3,0.7-0.6,1.3-1.1,1.8
			c-0.7,0.9-1.5,1.4-2.3,1.8c-0.9,0.3-1.7,0.5-2.6,0.5c-0.4,0-0.7,0-1-0.1c-0.3,0-0.6-0.1-0.8-0.2s-0.5-0.1-0.7-0.2
			s-0.4-0.2-0.6-0.2v5.5h-3.1L166.4,6.9L166.4,6.9z M169.5,16.2c0.6,0.5,1.5,0.8,2.8,0.8c0.6,0,1.1-0.1,1.5-0.3s0.8-0.5,1.1-0.9
			s0.5-0.8,0.7-1.2c0.2-0.5,0.2-0.9,0.2-1.4s-0.1-1-0.2-1.5c-0.1-0.5-0.3-0.9-0.6-1.2s-0.6-0.6-1-0.8s-0.9-0.3-1.5-0.3
			c-0.5,0-0.9,0.1-1.3,0.3c-0.4,0.2-0.7,0.5-1,0.8s-0.5,0.7-0.6,1c-0.2,0.4-0.2,0.7-0.2,1.1v3.6H169.5z"/>
		<polygon class="st0" points="6.1,12.1 1,14.8 2,14.8 5.1,14.8 		"/>
	</g>
</g>
<g>
	<path d="M6.2,36c-0.7-0.2-1.2-0.5-1.5-0.9l0.4-0.8c0.4,0.4,0.8,0.6,1.4,0.9c0.6,0.2,1.2,0.3,1.8,0.3c0.9,0,1.5-0.2,2-0.5
		c0.4-0.3,0.7-0.7,0.7-1.3c0-0.4-0.1-0.7-0.4-0.9c-0.2-0.2-0.5-0.4-0.9-0.5c-0.3-0.1-0.8-0.3-1.4-0.4c-0.7-0.2-1.3-0.4-1.8-0.5
		c-0.4-0.2-0.8-0.4-1.1-0.8c-0.3-0.4-0.5-0.8-0.5-1.4c0-0.5,0.1-0.9,0.4-1.4c0.3-0.4,0.7-0.7,1.2-1c0.5-0.2,1.2-0.4,2-0.4
		c0.6,0,1.1,0.1,1.6,0.2c0.5,0.2,1,0.4,1.4,0.6l-0.3,0.8c-0.4-0.3-0.8-0.5-1.3-0.6c-0.5-0.1-0.9-0.2-1.4-0.2c-0.9,0-1.5,0.2-1.9,0.5
		c-0.4,0.3-0.7,0.8-0.7,1.3c0,0.4,0.1,0.7,0.4,0.9c0.2,0.2,0.5,0.4,0.9,0.5S8,30.8,8.6,31c0.7,0.2,1.3,0.4,1.7,0.5s0.8,0.4,1.1,0.8
		c0.3,0.3,0.5,0.8,0.5,1.4c0,0.5-0.1,0.9-0.4,1.4c-0.3,0.4-0.7,0.7-1.2,1c-0.6,0.2-1.2,0.4-2,0.4C7.6,36.4,6.9,36.3,6.2,36z"/>
	<path d="M14,27.1c-0.1-0.1-0.2-0.3-0.2-0.5c0-0.2,0.1-0.3,0.2-0.5c0.1-0.1,0.3-0.2,0.5-0.2s0.4,0.1,0.5,0.2
		c0.1,0.1,0.2,0.3,0.2,0.5c0,0.2-0.1,0.4-0.2,0.5c-0.1,0.1-0.3,0.2-0.5,0.2S14.1,27.3,14,27.1z M14,28.9h1v7.4h-1V28.9z"/>
	<path d="M23.7,29.7c0.5,0.5,0.8,1.3,0.8,2.3v4.3h-1v-4.2c0-0.8-0.2-1.3-0.6-1.8s-0.9-0.6-1.6-0.6c-0.8,0-1.4,0.2-1.9,0.7
		c-0.5,0.5-0.7,1.1-0.7,2v3.9h-1v-7.4h1v1.4c0.3-0.4,0.6-0.8,1.1-1s1-0.4,1.7-0.4C22.4,28.9,23.2,29.1,23.7,29.7z"/>
	<path d="M28.4,35.9c-0.6-0.3-1-0.8-1.4-1.3c-0.3-0.6-0.5-1.2-0.5-1.9s0.2-1.4,0.5-1.9c0.3-0.6,0.8-1,1.4-1.3c0.6-0.3,1.2-0.5,2-0.5
		c0.6,0,1.2,0.1,1.7,0.4c0.5,0.2,0.9,0.6,1.2,1.1l-0.7,0.5c-0.2-0.4-0.6-0.6-0.9-0.8c-0.4-0.2-0.8-0.3-1.2-0.3c-0.5,0-1,0.1-1.4,0.4
		c-0.4,0.2-0.8,0.6-1,1c-0.2,0.4-0.4,0.9-0.4,1.5c0,0.6,0.1,1.1,0.4,1.5c0.2,0.4,0.6,0.8,1,1s0.9,0.4,1.4,0.4c0.4,0,0.8-0.1,1.2-0.3
		c0.4-0.2,0.7-0.4,0.9-0.8l0.7,0.5c-0.3,0.5-0.7,0.8-1.2,1.1s-1.1,0.4-1.7,0.4C29.6,36.4,28.9,36.2,28.4,35.9z"/>
	<path d="M41.4,32.9h-6.2c0.1,0.8,0.4,1.4,0.9,1.9c0.5,0.5,1.2,0.7,2,0.7c0.5,0,0.9-0.1,1.3-0.2s0.7-0.4,1-0.7l0.6,0.6
		c-0.3,0.4-0.7,0.7-1.2,0.9c-0.5,0.2-1,0.3-1.6,0.3c-0.8,0-1.4-0.2-2-0.5s-1-0.8-1.4-1.3c-0.3-0.6-0.5-1.2-0.5-1.9s0.2-1.4,0.5-1.9
		c0.3-0.6,0.7-1,1.3-1.3c0.5-0.3,1.2-0.5,1.8-0.5c0.7,0,1.3,0.2,1.8,0.5c0.5,0.3,1,0.8,1.3,1.3c0.3,0.6,0.5,1.2,0.5,1.9L41.4,32.9z
		 M36.1,30.4c-0.5,0.5-0.8,1-0.8,1.8h5.2c-0.1-0.7-0.3-1.3-0.8-1.8c-0.5-0.5-1.1-0.7-1.8-0.7C37.2,29.7,36.6,30,36.1,30.4z"/>
	<path d="M53.2,35.4v0.9h-6.9v-0.7l4.1-4c0.5-0.5,0.9-0.9,1-1.3c0.2-0.4,0.3-0.7,0.3-1.1c0-0.6-0.2-1-0.6-1.4
		c-0.4-0.3-1-0.5-1.7-0.5c-1.1,0-2,0.4-2.7,1.1L46,27.8c0.4-0.4,0.9-0.8,1.5-1c0.6-0.2,1.3-0.4,2-0.4c1,0,1.8,0.2,2.4,0.7
		c0.6,0.5,0.9,1.1,0.9,1.9c0,0.5-0.1,1-0.3,1.5c-0.2,0.5-0.6,1-1.3,1.6l-3.3,3.3H53.2z"/>
	<path d="M56.3,35.8c-0.6-0.4-1.1-1-1.4-1.7c-0.3-0.8-0.5-1.6-0.5-2.7c0-1,0.2-1.9,0.5-2.7c0.3-0.8,0.8-1.3,1.4-1.7
		c0.6-0.4,1.3-0.6,2-0.6s1.4,0.2,2,0.6s1.1,1,1.4,1.7s0.5,1.6,0.5,2.7c0,1-0.2,1.9-0.5,2.7c-0.3,0.8-0.8,1.3-1.4,1.7s-1.3,0.6-2,0.6
		S56.9,36.2,56.3,35.8z M59.8,35c0.4-0.3,0.8-0.8,1-1.4c0.2-0.6,0.4-1.3,0.4-2.2c0-0.9-0.1-1.6-0.4-2.2c-0.2-0.6-0.6-1.1-1-1.4
		c-0.4-0.3-0.9-0.5-1.5-0.5s-1.1,0.2-1.5,0.5c-0.4,0.3-0.8,0.8-1,1.4c-0.2,0.6-0.4,1.3-0.4,2.2c0,0.9,0.1,1.6,0.4,2.2
		c0.2,0.6,0.6,1.1,1,1.4c0.4,0.3,0.9,0.5,1.5,0.5S59.4,35.3,59.8,35z"/>
	<path d="M65.5,35.8c-0.6-0.4-1.1-1-1.4-1.7c-0.3-0.8-0.5-1.6-0.5-2.7c0-1,0.2-1.9,0.5-2.7c0.3-0.8,0.8-1.3,1.4-1.7
		c0.6-0.4,1.3-0.6,2-0.6s1.4,0.2,2,0.6s1.1,1,1.4,1.7s0.5,1.6,0.5,2.7c0,1-0.2,1.9-0.5,2.7c-0.3,0.8-0.8,1.3-1.4,1.7s-1.3,0.6-2,0.6
		S66.1,36.2,65.5,35.8z M69.1,35c0.4-0.3,0.8-0.8,1-1.4c0.2-0.6,0.4-1.3,0.4-2.2c0-0.9-0.1-1.6-0.4-2.2c-0.2-0.6-0.6-1.1-1-1.4
		c-0.4-0.3-0.9-0.5-1.5-0.5s-1.1,0.2-1.5,0.5c-0.4,0.3-0.8,0.8-1,1.4c-0.2,0.6-0.4,1.3-0.4,2.2c0,0.9,0.1,1.6,0.4,2.2
		c0.2,0.6,0.6,1.1,1,1.4c0.4,0.3,0.9,0.5,1.5,0.5S68.6,35.3,69.1,35z"/>
	<path d="M79,27.7c0.7,0.9,1,2.1,1,3.6c0,1.1-0.2,2-0.6,2.8c-0.4,0.8-0.9,1.3-1.6,1.7c-0.7,0.4-1.5,0.6-2.4,0.6
		c-1,0-1.7-0.2-2.3-0.5l0.4-0.8c0.5,0.3,1.1,0.5,1.9,0.5c1.1,0,1.9-0.3,2.5-1c0.6-0.7,0.9-1.7,0.9-3c0-0.2,0-0.5,0-0.8
		c-0.2,0.5-0.6,0.9-1.2,1.2c-0.5,0.3-1.1,0.4-1.8,0.4c-0.6,0-1.2-0.1-1.7-0.4c-0.5-0.2-0.9-0.6-1.2-1c-0.3-0.4-0.4-1-0.4-1.5
		c0-0.6,0.1-1.1,0.4-1.6c0.3-0.5,0.7-0.8,1.2-1.1c0.5-0.2,1.1-0.4,1.7-0.4C77.3,26.4,78.3,26.8,79,27.7z M77.4,31.2
		c0.4-0.2,0.7-0.4,0.9-0.8s0.3-0.7,0.3-1.1c0-0.4-0.1-0.7-0.3-1c-0.2-0.3-0.5-0.6-0.9-0.8c-0.4-0.2-0.9-0.3-1.4-0.3
		c-0.7,0-1.3,0.2-1.7,0.6c-0.4,0.4-0.7,0.9-0.7,1.5c0,0.6,0.2,1.2,0.7,1.5c0.4,0.4,1,0.6,1.8,0.6C76.6,31.5,77,31.4,77.4,31.2z"/>
	<path d="M89.7,35.9c-0.2,0.2-0.4,0.3-0.7,0.4c-0.3,0.1-0.6,0.1-0.9,0.1c-0.7,0-1.2-0.2-1.6-0.6c-0.4-0.4-0.6-0.9-0.6-1.6v-4.5h-1.3
		v-0.8h1.3v-1.6h1v1.6h2.2v0.8h-2.2v4.4c0,0.4,0.1,0.8,0.3,1c0.2,0.2,0.5,0.3,0.9,0.3c0.2,0,0.4,0,0.6-0.1s0.4-0.2,0.5-0.3
		L89.7,35.9z"/>
	<path d="M92.3,35.9c-0.6-0.3-1-0.8-1.3-1.3c-0.3-0.6-0.5-1.2-0.5-1.9s0.2-1.4,0.5-1.9c0.3-0.6,0.8-1,1.3-1.3
		c0.6-0.3,1.2-0.5,1.9-0.5c0.7,0,1.3,0.2,1.9,0.5c0.6,0.3,1,0.8,1.3,1.3c0.3,0.6,0.5,1.2,0.5,1.9s-0.2,1.4-0.5,1.9
		c-0.3,0.6-0.8,1-1.3,1.3c-0.6,0.3-1.2,0.5-1.9,0.5C93.5,36.4,92.9,36.2,92.3,35.9z M95.6,35.1c0.4-0.2,0.7-0.6,1-1
		c0.2-0.4,0.3-0.9,0.3-1.5c0-0.6-0.1-1.1-0.3-1.5c-0.2-0.4-0.6-0.8-1-1c-0.4-0.2-0.9-0.4-1.4-0.4c-0.5,0-1,0.1-1.4,0.4
		c-0.4,0.2-0.7,0.6-1,1c-0.2,0.4-0.4,0.9-0.4,1.5c0,0.6,0.1,1.1,0.4,1.5c0.2,0.4,0.6,0.8,1,1c0.4,0.2,0.9,0.4,1.4,0.4
		C94.7,35.5,95.2,35.4,95.6,35.1z"/>
	<path d="M106.8,28.9v6.5c0,1.3-0.3,2.2-0.9,2.8c-0.6,0.6-1.5,0.9-2.8,0.9c-0.7,0-1.3-0.1-1.9-0.3c-0.6-0.2-1.1-0.5-1.5-0.8l0.5-0.8
		c0.4,0.3,0.8,0.6,1.3,0.7c0.5,0.2,1,0.3,1.6,0.3c0.9,0,1.6-0.2,2.1-0.7s0.7-1.1,0.7-2v-0.9c-0.3,0.5-0.7,0.8-1.2,1.1
		c-0.5,0.2-1.1,0.4-1.7,0.4c-0.7,0-1.3-0.2-1.9-0.5c-0.6-0.3-1-0.7-1.3-1.3s-0.5-1.2-0.5-1.9c0-0.7,0.2-1.3,0.5-1.8s0.8-1,1.3-1.3
		c0.6-0.3,1.2-0.4,1.9-0.4c0.6,0,1.2,0.1,1.7,0.4s0.9,0.6,1.2,1.1v-1.4H106.8z M104.5,34.8c0.4-0.2,0.8-0.5,1-1s0.4-0.9,0.4-1.4
		c0-0.5-0.1-1-0.4-1.4s-0.6-0.7-1-1s-0.9-0.3-1.4-0.3c-0.5,0-1,0.1-1.4,0.3c-0.4,0.2-0.8,0.5-1,1c-0.2,0.4-0.4,0.9-0.4,1.4
		c0,0.5,0.1,1,0.4,1.4c0.2,0.4,0.6,0.7,1,1s0.9,0.3,1.4,0.3C103.6,35.1,104,35,104.5,34.8z"/>
	<path d="M116,32.9h-6.2c0.1,0.8,0.4,1.4,0.9,1.9c0.5,0.5,1.2,0.7,2,0.7c0.5,0,0.9-0.1,1.3-0.2s0.7-0.4,1-0.7l0.6,0.6
		c-0.3,0.4-0.7,0.7-1.2,0.9c-0.5,0.2-1,0.3-1.6,0.3c-0.8,0-1.4-0.2-2-0.5s-1-0.8-1.4-1.3c-0.3-0.6-0.5-1.2-0.5-1.9s0.2-1.4,0.5-1.9
		c0.3-0.6,0.7-1,1.3-1.3c0.5-0.3,1.2-0.5,1.8-0.5c0.7,0,1.3,0.2,1.8,0.5c0.5,0.3,1,0.8,1.3,1.3c0.3,0.6,0.5,1.2,0.5,1.9L116,32.9z
		 M110.6,30.4c-0.5,0.5-0.8,1-0.8,1.8h5.2c-0.1-0.7-0.3-1.3-0.8-1.8c-0.5-0.5-1.1-0.7-1.8-0.7C111.7,29.7,111.1,30,110.6,30.4z"/>
	<path d="M121.9,35.9c-0.2,0.2-0.4,0.3-0.7,0.4c-0.3,0.1-0.6,0.1-0.9,0.1c-0.7,0-1.2-0.2-1.6-0.6c-0.4-0.4-0.6-0.9-0.6-1.6v-4.5
		h-1.3v-0.8h1.3v-1.6h1v1.6h2.2v0.8h-2.2v4.4c0,0.4,0.1,0.8,0.3,1c0.2,0.2,0.5,0.3,0.9,0.3c0.2,0,0.4,0,0.6-0.1s0.4-0.2,0.5-0.3
		L121.9,35.9z"/>
	<path d="M129.7,29.7c0.5,0.5,0.8,1.3,0.8,2.3v4.3h-1v-4.2c0-0.8-0.2-1.3-0.6-1.8s-0.9-0.6-1.6-0.6c-0.8,0-1.4,0.2-1.9,0.7
		c-0.5,0.5-0.7,1.1-0.7,2v3.9h-1V25.9h1v4.3c0.3-0.4,0.6-0.8,1.1-1c0.5-0.2,1-0.3,1.6-0.3C128.4,28.9,129.1,29.1,129.7,29.7z"/>
	<path d="M139.6,32.9h-6.2c0.1,0.8,0.4,1.4,0.9,1.9c0.5,0.5,1.2,0.7,2,0.7c0.5,0,0.9-0.1,1.3-0.2s0.7-0.4,1-0.7l0.6,0.6
		c-0.3,0.4-0.7,0.7-1.2,0.9c-0.5,0.2-1,0.3-1.6,0.3c-0.8,0-1.4-0.2-2-0.5s-1-0.8-1.4-1.3c-0.3-0.6-0.5-1.2-0.5-1.9s0.2-1.4,0.5-1.9
		c0.3-0.6,0.7-1,1.3-1.3c0.5-0.3,1.2-0.5,1.8-0.5c0.7,0,1.3,0.2,1.8,0.5c0.5,0.3,1,0.8,1.3,1.3c0.3,0.6,0.5,1.2,0.5,1.9L139.6,32.9z
		 M134.3,30.4c-0.5,0.5-0.8,1-0.8,1.8h5.2c-0.1-0.7-0.3-1.3-0.8-1.8c-0.5-0.5-1.1-0.7-1.8-0.7C135.4,29.7,134.8,30,134.3,30.4z"/>
	<path d="M143.7,29.3c0.5-0.3,1-0.4,1.7-0.4v1l-0.2,0c-0.8,0-1.4,0.2-1.8,0.7c-0.4,0.5-0.7,1.1-0.7,2v3.8h-1v-7.4h1v1.4
		C142.9,29.9,143.2,29.5,143.7,29.3z"/>
</g>
</svg>
