<svg width="174" height="24" viewBox="0 0 174 24" fill="none" xmlns="http://www.w3.org/2000/svg"><g clip-path="url(#clip0_2643_481)"><path d="M26.4162 10.6389L2.52906 22.3346C1.98342 22.5958 1.35693 22.214 1.35693 21.6111V12.9499C1.35693 12.4274 1.66007 11.9652 2.10467 11.7441L16.6754 4.61015C21.1619 2.41972 26.4162 5.65513 26.4162 10.6389Z" fill="black"/><path d="M41.0067 14.2761L26.4561 21.39C21.9697 23.5804 16.7153 20.345 16.7153 15.3613L40.6025 3.66558C41.1481 3.40433 41.7746 3.78615 41.7746 4.38902V13.0503C41.7746 13.5728 41.4715 14.035 41.0269 14.256L41.0067 14.2761Z" fill="url(#paint0_linear_2643_481)"/><path d="M57.0327 3.46436H64.4495C68.9157 3.46436 71.8662 5.83565 71.8662 9.71412V9.7744C71.8662 14.0347 68.3094 16.2251 64.0857 16.2251H59.2759V23.1782H57.0327V3.46436ZM64.1665 14.1754C67.4404 14.1754 69.6028 12.427 69.6028 9.83469V9.7744C69.6028 6.96101 67.4808 5.49402 64.2878 5.49402H59.2759V14.1553H64.1665V14.1754Z" fill="black"/><path d="M80.6169 21.611C82.6176 21.611 84.0322 20.787 85.2245 19.5612L86.5785 20.7669C85.1033 22.3947 83.3249 23.5 80.5562 23.5C76.5346 23.5 73.2607 20.4253 73.2607 15.9038C73.2607 11.6837 76.2315 8.30762 80.2733 8.30762C84.5981 8.30762 87.104 11.744 87.104 16.0244C87.104 16.2253 87.104 16.4464 87.0838 16.788H75.4837C75.7869 19.8626 78.0503 21.6311 80.6371 21.6311L80.6169 21.611ZM84.881 15.0196C84.6183 12.3669 83.1026 10.1162 80.2127 10.1162C77.6865 10.1162 75.7667 12.2062 75.4635 15.0196H84.9012H84.881Z" fill="black"/><path d="M88.9834 21.3098L90.0949 19.7624C91.6914 20.9481 93.4294 21.6112 95.1674 21.6112C96.9054 21.6112 98.1987 20.7069 98.1987 19.3002V19.2399C98.1987 17.7729 96.481 17.2103 94.5409 16.6878C92.2573 16.0447 89.7109 15.261 89.7109 12.5883V12.528C89.7109 10.016 91.8127 8.36816 94.6824 8.36816C96.4608 8.36816 98.4413 8.99113 99.9569 9.97582L98.9667 11.6036C97.6127 10.7395 96.0566 10.1969 94.6419 10.1969C92.9242 10.1969 91.8127 11.1012 91.8127 12.3069V12.3672C91.8127 13.7538 93.6315 14.2763 95.5716 14.8792C97.835 15.5624 100.28 16.4265 100.28 19.039V19.0993C100.28 21.8524 97.9967 23.46 95.0663 23.46C92.9646 23.46 90.6405 22.6361 89.0036 21.3299L88.9834 21.3098Z" fill="black"/><path d="M102.483 18.9384V18.8781C102.483 15.7633 105.03 14.1155 108.748 14.1155C110.607 14.1155 111.921 14.3767 113.214 14.7384V14.2963C113.214 11.704 111.618 10.3576 108.89 10.3576C107.172 10.3576 105.798 10.7796 104.444 11.4025L103.797 9.63412C105.414 8.91067 106.97 8.38818 109.112 8.38818C111.254 8.38818 112.79 8.95086 113.841 9.99584C114.851 11.0006 115.377 12.4274 115.377 14.2762V23.1786H113.235V21.0083C112.224 22.2944 110.547 23.48 107.96 23.48C105.212 23.48 102.504 21.9327 102.504 18.9384H102.483ZM113.235 17.8131V16.4667C112.164 16.1652 110.749 15.8437 108.95 15.8437C106.242 15.8437 104.666 17.0293 104.666 18.7777V18.8379C104.666 20.6667 106.364 21.7317 108.344 21.7317C111.032 21.7317 113.214 20.1241 113.214 17.8131H113.235Z" fill="black"/><path d="M120.085 10.5182H118.064V8.62919H120.085V7.36316C120.085 5.69522 120.53 4.42919 121.359 3.62536C122.086 2.90191 123.177 2.5 124.491 2.5C125.501 2.5 126.189 2.62057 126.896 2.86172V4.75072C126.108 4.52967 125.501 4.389 124.774 4.389C123.076 4.389 122.228 5.39378 122.228 7.48373V8.66938H126.876V10.5182H122.268V23.1584H120.085V10.5182ZM129.867 2.62057H132.009V23.1785H129.867V2.62057Z" fill="black"/><path d="M135.505 15.9641V15.9038C135.505 11.8043 138.738 8.30762 143.144 8.30762C147.55 8.30762 150.763 11.744 150.763 15.8435V15.9038C150.763 20.0234 147.509 23.5 143.083 23.5C138.658 23.5 135.505 20.0636 135.505 15.9641ZM148.52 15.9641V15.9038C148.52 12.789 146.175 10.2167 143.083 10.2167C139.991 10.2167 137.728 12.7689 137.728 15.8435V15.9038C137.728 19.0186 140.052 21.5708 143.144 21.5708C146.236 21.5708 148.52 19.0387 148.52 15.9641Z" fill="black"/><path d="M152.016 8.60912H154.34L158.2 20.2847L162.141 8.54883H163.96L167.921 20.2847L171.781 8.60912H174.044L168.891 23.279H166.991L163.05 11.8043L159.089 23.279H157.169L152.036 8.60912H152.016Z" fill="black"/></g><defs><linearGradient id="paint0_linear_2643_481" x1="16.7153" y1="12.8292" x2="41.7544" y2="12.8292" gradientUnits="userSpaceOnUse"><stop stop-color="#F9EC31"/><stop offset="1" stop-color="#F05A28"/></linearGradient><clipPath id="clip0_2643_481"><rect width="174" height="23" fill="white" transform="translate(0 0.5)"/></clipPath></defs></svg>