<svg xmlns="http://www.w3.org/2000/svg" xmlns:xlink="http://www.w3.org/1999/xlink" id="Layer_1" x="0px" y="0px" viewBox="0 0 1299 368.1" style="enable-background:new 0 0 1299 368.1;" xml:space="preserve"><style type="text/css">	.st0{fill:url(#SVGID_1_);}	.st1{fill:url(#SVGID_00000023984634380356151600000008039056792241871763_);}	.st2{fill:url(#SVGID_00000040534551418494980360000004118028622065432987_);}	.st3{fill:url(#SVGID_00000132047433168545318480000005889479980544349850_);}</style><g>			<linearGradient id="SVGID_1_" gradientUnits="userSpaceOnUse" x1="918.45" y1="-692.7559" x2="918.45" y2="-1060.756" gradientTransform="matrix(1 0 0 1 0 1060.756)">		<stop offset="0" style="stop-color:#0DA9A8"></stop>		<stop offset="1" style="stop-color:#0D93A8"></stop>	</linearGradient>	<path class="st0" d="M902,262.2V128h86.8V72H902V0h-62v267.9c0,16.8,2.5,31.5,7.3,44.1c8.9,23.4,25.7,39.3,49,48  c14.2,5.4,30.8,8,49.6,8c14.6,0,31.6-2.4,51-6.5V309c-17,1.8-29.3,3-38.1,3C921.3,312,902,299.1,902,262.2z"></path>			<linearGradient id="SVGID_00000104675663931336373400000015254252599880724139_" gradientUnits="userSpaceOnUse" x1="613.1" y1="-692.731" x2="613.1" y2="-996.7809" gradientTransform="matrix(1 0 0 1 0 1060.756)">		<stop offset="0" style="stop-color:#0DA9A8"></stop>		<stop offset="1" style="stop-color:#0D93A8"></stop>	</linearGradient>	<path style="fill:url(#SVGID_00000104675663931336373400000015254252599880724139_);" d="M701.9,105.7  c-14.3-15.2-32.1-26.8-51.8-33.7c-30.7-10.7-64-10.7-94.7,0c-25.6,9.1-47.9,25.9-63.7,48c-19,26.2-29.6,59.5-29.6,96  s10.6,69.8,29.6,96c15.8,22.1,38,38.9,63.7,48c30.7,10.7,64,10.7,94.7,0c19.7-7,37.4-18.5,51.8-33.8V360h62.2V72h-62.2V105.7z   M613.1,312c-53,0-88.8-43-88.8-96s35.8-96,88.8-96c53,0,88.8,43,88.8,96S666.1,312,613.1,312z"></path>			<linearGradient id="SVGID_00000163773831870879282760000003783365557104030640_" gradientUnits="userSpaceOnUse" x1="1172.6001" y1="-692.7559" x2="1172.6001" y2="-988.756" gradientTransform="matrix(1 0 0 1 0 1060.756)">		<stop offset="0" style="stop-color:#0DA9A8"></stop>		<stop offset="1" style="stop-color:#0D93A8"></stop>	</linearGradient>	<path style="fill:url(#SVGID_00000163773831870879282760000003783365557104030640_);" d="M1236.8,72v180.6  c0,35.4-28.7,59.4-64.2,59.4s-64.2-23.9-64.2-59.4V72h-62.2v179.1c0,46.3,25,82.7,62.2,101.9c18.8,9.7,40.7,15,64.2,15  s45.4-5.3,64.2-15c37.2-19.2,62.2-55.6,62.2-101.9V72H1236.8z"></path>			<linearGradient id="SVGID_00000125575338585787194960000004447341893354598068_" gradientUnits="userSpaceOnUse" x1="224.25" y1="-692.6559" x2="224.25" y2="-988.756" gradientTransform="matrix(1 0 0 1 0 1060.756)">		<stop offset="0" style="stop-color:#0DA9A8"></stop>		<stop offset="1" style="stop-color:#0D93A8"></stop>	</linearGradient>	<path style="fill:url(#SVGID_00000125575338585787194960000004447341893354598068_);" d="M317.5,285.8l-56.2-140.7  c-8.2-20.5-31.5-30.4-52-22.2c-10.1,4.1-18.2,12.1-22.2,22.2l-56.3,140.7L63.8,72H0l90.1,267.8c2.8,8.2,8.1,15.4,15.1,20.5  c7.1,5,15.6,7.7,24.2,7.8c17.3,0,32.7-10.7,38.8-26.9l56.1-149l56,149c8.1,21.4,32,32.3,53.5,24.2c11.7-4.4,20.7-13.8,24.7-25.6  l90-267.8h-63.9L317.5,285.8z"></path></g></svg>