<svg width="1019" height="277" viewBox="0 0 1019 277" fill="none" xmlns="http://www.w3.org/2000/svg">
<path d="M320.855 176.571L359.735 115.561H323.065V107.781V99.9414H381.725V106.951V114.011L342.845 175.021H383.995V182.801V190.641H320.865V183.631V176.571H320.855Z" fill="#00332A"/>
<path d="M427.885 192.92C417.475 192.92 408.595 189.4 401.255 182.35C393.915 175.31 390.245 166.75 390.245 156.69C390.245 146.63 393.915 138.06 401.255 130.97C408.595 123.89 417.495 120.34 427.945 120.34C438.045 120.34 446.605 123.59 453.635 130.1V122.62H470.385V190.64H462.045H453.635V183.22C446.525 189.64 437.945 192.88 427.885 192.92ZM430.885 135.14C424.525 135.14 419.205 137.21 414.935 141.34C410.665 145.47 408.525 150.59 408.525 156.7C408.525 162.77 410.655 167.86 414.935 171.97C419.205 176.08 424.495 178.14 430.815 178.14C437.175 178.14 442.505 176.08 446.795 171.97C451.085 167.86 453.235 162.75 453.235 156.64C453.235 150.53 451.095 145.42 446.825 141.31C442.565 137.19 437.255 135.14 430.885 135.14Z" fill="#00332A"/>
<path d="M491.985 182.35C484.135 175.31 480.205 166.75 480.205 156.69C480.205 146.63 484.135 138.06 491.985 130.97C499.835 123.89 509.345 120.34 520.515 120.34C531.725 120.34 541.255 123.88 549.105 130.97C556.955 138.06 560.885 146.63 560.885 156.69C560.885 166.75 556.955 175.3 549.105 182.35C541.255 189.4 531.725 192.92 520.515 192.92C509.345 192.92 499.835 189.39 491.985 182.35ZM536.255 171.9C540.485 167.83 542.595 162.76 542.595 156.69C542.595 150.62 540.485 145.53 536.255 141.42C532.025 137.31 526.775 135.25 520.505 135.25C514.275 135.25 509.045 137.31 504.825 141.42C500.595 145.53 498.485 150.62 498.485 156.69C498.485 162.76 500.595 167.83 504.825 171.9C509.055 175.97 514.275 178.01 520.505 178.01C526.785 178.01 532.025 175.97 536.255 171.9Z" fill="#00332A"/>
<path d="M602.145 141.012C601.695 139.092 600.855 137.662 599.605 136.702C598.355 135.742 596.755 135.262 594.795 135.262C592.705 135.262 590.995 135.802 589.685 136.882C588.375 137.962 587.715 139.362 587.715 141.072C587.715 142.712 588.535 144.022 590.185 145.022C591.835 146.022 594.985 147.162 599.665 148.432C607.625 150.632 613.325 153.362 616.745 156.632C620.125 159.902 621.815 164.252 621.815 169.682C621.815 176.512 619.305 182.082 614.275 186.412C609.245 190.742 602.795 192.912 594.915 192.912C586.945 192.912 580.375 190.722 575.185 186.352C570.005 181.982 567.235 176.262 566.875 169.202H585.555C586.085 172.072 587.175 174.262 588.825 175.762C590.475 177.262 592.605 178.012 595.235 178.012C597.725 178.012 599.775 177.392 601.375 176.152C602.975 174.912 603.775 173.322 603.775 171.362C603.775 169.252 603.045 167.612 601.595 166.452C600.125 165.292 597.295 164.142 593.115 162.982C584.705 160.672 578.665 157.872 575.015 154.602C571.415 151.372 569.615 147.102 569.615 141.792C569.615 135.482 572.015 130.332 576.825 126.342C581.635 122.352 587.795 120.352 595.315 120.352C601.905 120.352 607.555 122.332 612.275 126.282C616.995 130.232 619.555 135.142 619.955 141.012H602.145Z" fill="#45932F"/>
<path d="M631.815 99.9297H640.895H650.035V127.41C655.685 122.62 662.265 120.27 669.785 120.35C678.725 120.35 685.835 123.06 691.105 128.49C696.375 133.92 699.015 141.26 699.015 150.52V190.63H689.935H680.795V154.12C680.795 147.93 679.515 143.23 676.955 140.02C674.395 136.81 670.645 135.2 665.715 135.2C660.465 135.2 656.545 136.84 653.935 140.11C651.335 143.38 650.035 148.29 650.035 154.84V190.64H640.955H631.815V99.9297Z" fill="#45932F"/>
<path d="M713.695 99.9297H731.915V114.9H713.695V99.9297ZM713.695 122.62H722.775H731.915V190.64H722.835H713.695V122.62Z" fill="#45932F"/>
<path d="M746.656 122.622H755.125H763.596V128.492C769.466 123.062 776.495 120.352 784.685 120.352C793.675 120.352 800.806 123.072 806.076 128.522C811.346 133.972 813.985 141.322 813.985 150.582V190.632H804.906H795.766V154.232C795.766 148.002 794.476 143.272 791.896 140.042C789.316 136.812 785.555 135.192 780.615 135.192C775.365 135.192 771.425 136.832 768.805 140.102C766.175 143.372 764.865 148.282 764.865 154.832V190.632H755.786H746.646V122.622H746.656Z" fill="#45932F"/>
<path d="M862.566 192.92C852.156 192.92 843.276 189.4 835.936 182.35C828.596 175.31 824.926 166.75 824.926 156.69C824.926 146.63 828.596 138.06 835.936 130.97C843.276 123.89 852.176 120.34 862.626 120.34C872.726 120.34 881.286 123.59 888.316 130.1V122.62H905.066V190.64H896.726H888.316V183.22C881.206 189.64 872.626 192.88 862.566 192.92ZM865.576 135.14C859.216 135.14 853.896 137.21 849.626 141.34C845.356 145.47 843.216 150.59 843.216 156.7C843.216 162.77 845.346 167.86 849.626 171.97C853.896 176.08 859.186 178.14 865.506 178.14C871.866 178.14 877.196 176.08 881.486 171.97C885.776 167.86 887.926 162.75 887.926 156.64C887.926 150.53 885.786 145.42 881.516 141.31C877.246 137.19 871.936 135.14 865.576 135.14Z" fill="#45932F"/>
<path d="M918.885 122.622H927.355H935.825V128.492C941.695 123.062 948.725 120.352 956.915 120.352C965.905 120.352 973.035 123.072 978.305 128.522C983.575 133.972 986.215 141.322 986.215 150.582V190.632H977.135H967.995V154.232C967.995 148.002 966.705 143.272 964.125 140.042C961.545 136.812 957.785 135.192 952.845 135.192C947.595 135.192 943.655 136.832 941.035 140.102C938.405 143.372 937.095 148.282 937.095 154.832V190.632H928.015H918.875V122.622H918.885Z" fill="#45932F"/>
<path d="M1000.77 99.9297H1018.99V114.9H1000.77V99.9297ZM1000.77 122.62H1009.85H1018.99V190.64H1009.91H1000.77V122.62Z" fill="#45932F"/>
<path d="M227.356 129.37C238.866 129.37 249.826 129.24 260.786 129.44C264.726 129.51 265.806 133.07 265.976 136.07C266.366 142.7 266.346 149.38 266.066 156.02C265.906 159.9 263.416 163.06 259.716 163.76C246.326 166.31 239.986 175.28 236.826 187.52C236.476 188.86 235.956 190.18 235.296 191.4C229.666 201.77 228.676 211.97 235.296 222.5C237.826 226.53 236.546 230.91 233.226 234.4C229.596 238.21 225.966 242.01 222.256 245.74C218.716 249.3 214.536 250.06 209.916 248.12C207.496 247.1 205.086 246.04 202.746 244.86C198.136 242.54 193.546 242.67 188.866 244.61C180.586 248.05 172.336 251.56 163.986 254.84C158.466 257.01 154.726 260.59 152.596 266.22C149.006 275.71 147.236 276.77 137.206 276.77C133.186 276.77 129.156 276.8 125.136 276.75C120.096 276.69 116.216 274.44 115.006 269.51C112.816 260.58 107.096 255.68 98.6956 252.84C92.2656 250.67 86.0556 247.81 79.8156 245.12C74.9256 243.01 70.2456 243.18 65.5656 245.7C49.1156 254.55 49.2056 252.05 38.1656 241.45C36.4956 239.84 34.7456 238.29 33.1956 236.58C30.1456 233.22 29.0756 229.4 30.8756 225.03C31.4056 223.74 31.7556 222.35 32.4656 221.17C38.1556 211.7 38.0456 202.31 32.8856 192.57C30.4456 187.96 28.9856 182.82 27.0556 177.94C25.1356 173.07 21.8656 169.61 16.7156 168.08C13.6056 167.15 10.5256 166.13 7.45559 165.05C2.06559 163.16 -0.884414 158.19 0.235586 152.61C0.415586 151.72 1.58559 150.56 2.48559 150.36C14.3756 147.75 26.3056 145.29 38.4856 142.74C39.4756 149.37 39.9756 155.52 41.3556 161.48C49.5256 196.8 68.9456 223.57 103.576 236.12C139.396 249.11 171.376 240.09 197.836 213.19C219.736 190.92 228.586 163.34 227.366 132.34C227.326 131.6 227.356 130.84 227.356 129.37Z" fill="#00332A"/>
<path d="M215.435 145.199C216.485 157.279 216.485 157.269 206.065 160.399C168.835 171.589 135.095 189.849 102.965 211.349C101.805 212.119 100.655 212.899 99.5052 213.669C90.9152 219.389 90.8752 219.439 82.4752 212.989C74.8252 207.109 68.3652 200.129 63.1152 191.239C110.665 164.829 161.565 150.799 215.435 145.199Z" fill="#45932F"/>
<path d="M100.985 223.798C136.005 199.708 172.165 179.768 212.765 167.988C204.255 212.408 150.945 244.968 100.985 223.798Z" fill="#176E44"/>
<path d="M24.626 58.2774C50.406 17.9374 88.096 4.27734 170.466 35.8173C142.456 30.0373 91.246 28.8674 61.426 42.8474C106.706 32.2174 146.186 34.6074 175.966 44.2974C125.636 41.4974 58.726 81.7074 24.626 58.2774Z" fill="#00332A"/>
<path d="M127.186 1.11901C144.736 -2.89099 158.226 3.07901 171.246 32.119C165.496 23.529 152.446 10.289 140.916 6.39904C155.576 15.069 165.236 25.669 170.396 35.719C158.036 22.269 129.796 15.849 127.186 1.11901Z" fill="#45932F"/>
<path d="M159.466 132.649C165.486 125.779 166.126 120.239 161.666 115.099C157.906 110.759 151.226 109.709 146.216 112.669C140.406 116.089 139.416 121.639 143.176 130.869C142.946 130.829 142.726 130.809 142.476 130.779C143.396 131.389 144.286 132.039 145.136 132.769C145.326 132.929 145.516 133.099 145.706 133.269C145.896 133.439 146.076 133.619 146.266 133.799C145.926 133.799 145.586 133.799 145.246 133.799C145.286 133.859 145.306 133.919 145.346 133.979C147.726 134.489 149.976 135.339 152.466 135.689C154.446 135.969 156.526 135.469 158.586 134.849C159.386 134.609 160.186 134.349 160.986 134.109C160.316 134.079 159.636 134.049 158.956 134.029C159.886 133.649 160.816 133.259 161.746 132.919L159.466 132.649ZM158.836 123.449C158.376 126.869 155.186 129.279 151.666 128.829C148.236 128.409 145.706 125.139 146.176 121.799C146.656 118.349 149.866 115.969 153.366 116.449C156.906 116.919 159.296 119.989 158.836 123.449Z" fill="#00332A"/>
<path d="M195.476 135.189C195.496 135.139 195.516 135.089 195.536 135.039C195.556 134.999 195.566 134.959 195.576 134.929C197.486 130.019 197.086 127.209 194.376 125.069C191.926 123.139 189.166 122.679 186.446 124.239C182.396 126.559 181.856 130.029 183.486 133.979C183.486 133.989 183.496 133.989 183.496 133.999C183.366 133.989 183.246 133.979 183.126 133.969C184.596 134.569 186.076 135.139 187.636 135.519C188.006 135.609 188.386 135.689 188.756 135.759C189.106 135.829 189.466 135.879 189.816 135.919C190.276 135.979 190.736 136.009 191.186 136.029H191.206C192.876 136.089 194.526 135.859 196.116 135.259C195.916 135.239 195.726 135.209 195.516 135.189C195.486 135.189 195.486 135.189 195.476 135.189ZM185.676 130.229C185.856 127.859 187.326 126.579 189.686 126.429C191.886 126.279 193.786 128.309 193.696 130.859C193.446 132.839 192.196 134.189 189.706 134.229C187.356 134.269 185.496 132.449 185.676 130.229Z" fill="#00332A"/>
<path d="M171.796 63.8484C146.276 83.0584 124.036 106.518 103.686 132.418C103.746 132.408 103.806 132.408 103.856 132.398C103.136 132.968 102.676 133.708 102.456 134.528C99.246 134.128 95.836 133.708 92.386 133.278C88.616 138.898 82.206 135.618 77.056 138.148C76.396 137.098 71.576 130.118 70.786 128.858C67.506 129.258 75.046 142.518 73.086 139.988C71.146 137.468 60.056 129.748 57.306 130.388C56.966 130.468 56.746 130.678 56.696 131.048V131.058C56.476 132.948 54.466 134.638 52.066 136.278C51.606 136.588 51.136 136.908 50.666 137.218C51.106 136.708 51.566 136.208 52.006 135.708C53.526 134.008 55.056 132.328 56.606 130.678V130.668C56.806 130.458 57.006 130.238 57.206 130.028C92.176 92.5784 132.286 64.9884 176.486 44.1484C180.746 57.1184 180.736 57.1084 171.796 63.8484Z" fill="#00332A"/>
<path d="M196.615 135.021C196.265 134.991 195.915 134.961 195.575 134.941C191.365 134.611 187.605 134.32 183.475 133.99C183.475 134 183.485 134.001 183.485 134.011C183.355 134.001 183.235 133.991 183.115 133.981C184.585 134.581 186.065 135.151 187.625 135.531C187.995 135.621 188.375 135.701 188.745 135.771C188.735 135.581 188.735 135.401 188.725 135.221C190.845 135.171 192.975 135.121 195.535 135.051C195.885 135.031 196.245 135.031 196.615 135.021ZM189.805 135.921C190.265 135.981 190.725 136.011 191.175 136.031C190.715 135.991 190.255 135.961 189.805 135.921ZM154.745 134.531C152.945 134.381 151.145 134.211 149.345 134.041C148.485 133.961 147.645 133.731 146.765 133.421C146.235 133.231 145.695 133.011 145.135 132.771C145.325 132.931 145.515 133.101 145.705 133.271C145.895 133.441 146.075 133.621 146.265 133.801C145.925 133.801 145.585 133.801 145.245 133.801C145.285 133.861 145.305 133.921 145.345 133.981C147.725 134.491 149.975 135.341 152.465 135.691C154.445 135.971 156.525 135.471 158.585 134.851C157.305 134.761 156.025 134.651 154.745 134.531ZM70.8052 128.861C70.8252 128.851 70.8352 128.851 70.8552 128.851C70.6552 128.601 70.6552 128.611 70.8052 128.861Z" fill="#176E44"/>
<path d="M208.006 137.34C207.146 137.27 206.276 137.21 205.406 137.14C200.706 136.77 195.946 136.4 191.196 136.03H191.176C190.716 136.01 190.266 135.98 189.806 135.92C189.456 135.89 189.096 135.86 188.746 135.84C188.746 135.81 188.746 135.78 188.746 135.76C188.376 135.69 187.996 135.61 187.626 135.52C186.066 135.14 184.586 134.57 183.116 133.97C183.236 133.98 183.366 133.99 183.486 134C183.486 133.99 183.486 133.99 183.476 133.98C183.336 133.97 183.186 133.96 183.046 133.95C183.766 135.43 184.246 136.42 184.476 136.88C175.906 136.21 167.256 135.59 158.586 134.86C156.526 135.48 154.446 135.98 152.466 135.7C149.976 135.35 147.726 134.5 145.346 133.99C145.306 133.93 145.286 133.87 145.246 133.81C145.586 133.81 145.926 133.81 146.266 133.81C146.076 133.62 145.896 133.45 145.706 133.28C145.516 133.11 145.326 132.94 145.136 132.78C144.036 132.31 142.846 131.78 141.506 131.29C141.096 131.37 139.496 131.7 137.346 132.13C137.386 131.6 137.426 131.16 137.466 130.77C137.976 125.79 138.356 131.47 138.816 125.56C138.436 125.49 137.926 125.4 137.556 125.34C136.496 130.39 135.416 121.99 134.676 127.1C134.236 130.17 133.006 131.16 130.116 130.51C129.406 130.35 128.656 130.38 127.456 130.29C128.116 130.57 128.686 130.82 129.196 131.04C129.856 131.33 130.426 131.57 130.996 131.82C130.966 132.23 130.936 132.64 130.896 133.04C129.446 133.16 127.966 133.53 126.546 133.36C123.016 132.94 119.526 132.16 116.006 131.8C115.416 131.74 114.826 131.69 114.236 131.65C112.596 131.55 110.896 131.92 109.226 132.36C108.496 132.55 107.766 132.76 107.046 132.96C105.936 133.25 104.976 134.11 103.936 134.73C103.446 134.67 102.956 134.61 102.466 134.55C99.256 134.15 95.846 133.73 92.396 133.3C88.626 138.92 82.216 135.64 77.066 138.17C76.406 137.12 71.586 130.14 70.796 128.88C67.516 129.28 75.056 142.54 73.096 140.01C71.156 137.49 60.066 129.77 57.316 130.41C56.976 130.49 56.756 130.7 56.706 131.07V131.08C56.486 132.97 54.476 134.66 52.076 136.3C51.616 136.61 51.146 136.93 50.676 137.24C47.126 139.57 43.316 141.86 43.216 144.57C43.186 145.35 46.936 150.73 50.706 156.17C50.716 156.18 50.716 156.18 50.716 156.2C54.586 161.76 58.456 167.39 58.316 168.18C58.356 171.17 62.456 177.94 66.266 176.82C66.466 176.76 66.636 176.71 66.796 176.66C69.206 175.92 66.646 176.35 69.556 175.86C69.096 174.87 73.046 175.09 75.046 174.94C75.786 174.88 76.256 174.77 76.146 174.54C76.296 174.51 76.406 174.46 76.516 174.41L76.526 174.4C77.176 174.01 76.986 173.12 76.606 172.15C77.026 171.42 76.256 170 75.716 168.85C75.746 168.84 75.776 168.83 75.806 168.82C76.786 168.66 77.796 168.67 78.786 168.72C79.766 168.78 80.836 169.32 81.696 169.07C87.776 167.29 93.826 165.38 99.876 163.47C100.596 163.24 101.216 162.69 101.896 162.33C103.566 161.45 105.156 160.22 106.926 159.81C110.536 158.97 114.236 158.57 117.906 157.98C117.976 157.5 118.036 157.03 118.096 156.56C117.876 156.48 117.656 156.4 117.436 156.32C117.486 155.96 117.536 155.61 117.586 155.26C116.566 154.9 115.536 154.54 114.516 154.18C119.476 154.57 124.426 154.95 129.376 155.34C129.276 154.99 129.186 154.64 129.086 154.3C130.276 153.55 131.416 152.73 132.656 152.07C136.396 150.08 140.916 154.3 144.486 150.63C144.526 150.59 144.746 150.77 144.856 150.74C148.446 149.91 152.516 149.85 155.456 147.98C157.956 146.39 159.836 145.94 162.496 146.54C164.196 146.93 166.016 146.88 167.796 146.86C173.846 146.79 179.896 146.65 185.946 146.51C186.116 146.51 186.286 146.3 186.486 146.18C185.646 145.68 184.836 145.2 183.496 144.41C188.266 144.34 192.296 144.28 196.326 144.21C196.336 144.44 196.356 144.68 196.366 144.91C194.406 145.16 192.456 145.4 190.496 145.65C194.966 145.28 199.316 145.91 203.846 143.92C203.996 143.85 204.146 143.78 204.296 143.71C208.626 141.62 209.406 142.5 208.006 137.34ZM143.816 146.11C143.746 145.62 143.686 145.13 143.616 144.64C143.976 144.61 144.336 144.57 144.696 144.54C145.286 144.48 145.876 144.43 146.476 144.37C148.136 144.21 149.886 144.05 151.846 143.86C149.846 147.17 147.646 147.59 143.816 146.11ZM142.216 136.48C147.326 137.86 152.396 136.42 157.286 139.47C153.176 141.5 143.526 139.86 142.216 136.48Z" fill="#176E44"/>
<path d="M198.656 115.89L196.596 111.42L180.326 106.61L181.186 93.15L180.056 93.08L179.216 106.22L174.706 104.86L172.466 96.23L174.396 95.48L174.516 93.66C174.076 93.15 173.346 92.42 172.266 91.79C171.256 91.2 170.306 90.92 169.656 90.78C161.676 90.27 153.686 89.76 145.706 89.25L145.606 90.75L147.906 92.53L139.006 112.7L141.306 113.23C141.306 113.23 148.346 105.64 158.436 109.36C168.526 113.08 167.486 124.64 167.486 124.64L180.926 125.5L181.106 122.75L183.506 122.9C183.506 122.9 186.646 119.02 190.636 119.02C194.636 119.03 197.406 121.63 197.406 121.63L199.136 121.74L198.656 115.89ZM157.036 105.15L150.156 103.8L152.596 92.34L158.286 92.7L157.036 105.15ZM172.706 117.38L169.176 117.15L165.916 112.79L172.896 114.51L172.706 117.38ZM162.676 108.53L160.966 106.5L161.836 92.92L164.806 93.11C167.556 93.29 169.846 95.23 170.336 97.82L173.056 111.99L162.676 108.53Z" fill="#00332A"/>
<path d="M321 205.938H323.893H326.785V233.887H323.893H321V205.938Z" fill="#45932F"/>
<path d="M335.994 212.936H338.616H341.237V214.739C343.056 213.066 345.237 212.234 347.768 212.234C350.547 212.234 352.762 213.076 354.389 214.75C356.028 216.423 356.841 218.69 356.841 221.551V233.89H354.028H351.191V222.684C351.191 220.763 350.796 219.305 349.994 218.312C349.192 217.319 348.028 216.822 346.502 216.822C344.875 216.822 343.655 217.33 342.841 218.334C342.028 219.338 341.621 220.86 341.621 222.868V233.901H338.808H335.972V212.936H335.994Z" fill="#45932F"/>
<path d="M388.727 227.064C387.936 229.353 386.479 231.177 384.354 232.548C382.23 233.919 379.778 234.599 377.01 234.599C373.564 234.599 370.637 233.509 368.208 231.339C365.79 229.169 364.581 226.535 364.581 223.437C364.581 220.339 365.79 217.694 368.208 215.513C370.626 213.332 373.564 212.242 377.01 212.242C379.812 212.242 382.287 212.933 384.433 214.315C386.58 215.697 388.061 217.543 388.863 219.864H382.58C382.038 218.881 381.292 218.126 380.332 217.618C379.372 217.1 378.253 216.841 376.953 216.841C375.089 216.841 373.507 217.467 372.208 218.719C370.909 219.972 370.253 221.505 370.253 223.297C370.253 225.207 370.92 226.794 372.264 228.079C373.598 229.364 375.259 230.011 377.225 230.011C378.309 230.011 379.326 229.752 380.275 229.223C381.225 228.694 381.948 227.982 382.456 227.086H388.727V227.064Z" fill="#45932F"/>
<path d="M396.297 205.938H399.11H401.946V233.887H399.133H396.297V205.938Z" fill="#45932F"/>
<path d="M415.822 224.139C415.822 226.061 416.218 227.518 417.02 228.522C417.822 229.526 418.986 230.023 420.534 230.023C422.172 230.023 423.404 229.515 424.229 228.511C425.054 227.507 425.46 225.985 425.46 223.967V212.934H428.274H431.11V233.898H428.489H425.867V232.031C424.093 233.736 421.901 234.6 419.291 234.6C416.511 234.6 414.297 233.758 412.659 232.085C411.02 230.411 410.195 228.134 410.195 225.273V212.944H412.997H415.834V224.139H415.822Z" fill="#45932F"/>
<path d="M449.108 218.604C448.973 218.01 448.713 217.567 448.317 217.276C447.922 216.984 447.436 216.833 446.826 216.833C446.182 216.833 445.651 216.995 445.244 217.33C444.837 217.664 444.634 218.096 444.634 218.625C444.634 219.133 444.894 219.532 445.402 219.845C445.911 220.158 446.894 220.504 448.34 220.892C450.803 221.572 452.577 222.414 453.628 223.418C454.679 224.422 455.199 225.772 455.199 227.445C455.199 229.55 454.419 231.267 452.86 232.605C451.3 233.944 449.3 234.602 446.86 234.602C444.397 234.602 442.352 233.933 440.747 232.584C439.143 231.234 438.284 229.475 438.171 227.294H443.956C444.126 228.179 444.464 228.848 444.973 229.313C445.481 229.777 446.148 230.004 446.962 230.004C447.73 230.004 448.374 229.809 448.86 229.431C449.346 229.054 449.606 228.557 449.606 227.952C449.606 227.305 449.38 226.797 448.928 226.441C448.476 226.085 447.594 225.729 446.295 225.372C443.685 224.66 441.82 223.796 440.691 222.792C439.572 221.799 439.018 220.482 439.018 218.841C439.018 216.898 439.764 215.311 441.256 214.08C442.747 212.85 444.657 212.234 446.984 212.234C449.029 212.234 450.781 212.839 452.238 214.059C453.696 215.279 454.498 216.79 454.622 218.604H449.108Z" fill="#45932F"/>
<path d="M462.159 205.938H467.809V210.547H462.159V205.938ZM462.159 212.933H464.973H467.809V233.898H464.995H462.159V212.933Z" fill="#45932F"/>
<path d="M478.666 231.339C476.237 229.169 475.017 226.535 475.017 223.437C475.017 220.339 476.237 217.694 478.666 215.513C481.095 213.332 484.045 212.242 487.502 212.242C490.971 212.242 493.931 213.332 496.361 215.513C498.79 217.694 500.01 220.339 500.01 223.437C500.01 226.535 498.79 229.169 496.361 231.339C493.931 233.509 490.971 234.599 487.502 234.599C484.045 234.599 481.107 233.509 478.666 231.339ZM492.395 228.122C493.705 226.87 494.361 225.305 494.361 223.437C494.361 221.569 493.705 220.004 492.395 218.73C491.084 217.467 489.457 216.83 487.513 216.83C485.581 216.83 483.965 217.467 482.655 218.73C481.344 219.993 480.689 221.569 480.689 223.437C480.689 225.305 481.344 226.87 482.655 228.122C483.965 229.374 485.581 230.001 487.513 230.001C489.457 230.001 491.084 229.374 492.395 228.122Z" fill="#45932F"/>
<path d="M507.266 212.936H509.887H512.509V214.739C514.328 213.066 516.508 212.234 519.039 212.234C521.819 212.234 524.034 213.076 525.661 214.75C527.299 216.423 528.113 218.69 528.113 221.551V233.89H525.299H522.463V222.684C522.463 220.763 522.068 219.305 521.265 218.312C520.463 217.319 519.299 216.822 517.774 216.822C516.147 216.822 514.927 217.33 514.113 218.334C513.299 219.338 512.893 220.86 512.893 222.868V233.901H510.079H507.243V212.936H507.266Z" fill="#45932F"/>
<path d="M556.1 210.768H550.27V208.371V205.953H567.715V208.35V210.768H561.885V233.902H558.992H556.1V210.768Z" fill="#45932F"/>
<path d="M573.987 205.938H576.801H579.637V214.401C581.388 212.922 583.422 212.199 585.761 212.22C588.529 212.22 590.733 213.052 592.371 214.725C594.009 216.398 594.823 218.665 594.823 221.515V233.876H592.009H589.173V222.616C589.173 220.706 588.778 219.259 587.987 218.277C587.196 217.283 586.032 216.787 584.507 216.787C582.88 216.787 581.659 217.294 580.857 218.298C580.055 219.302 579.648 220.824 579.648 222.832V233.865H576.835H573.999V205.938H573.987Z" fill="#45932F"/>
<path d="M603.669 212.936H606.29H608.911V214.523L609.182 214.188C610.233 212.882 611.849 212.234 614.041 212.234H614.414V217.028C612.832 217.125 611.612 217.492 610.776 218.139C609.793 218.906 609.307 220.104 609.307 221.756V233.901H606.493H603.657V212.936H603.669Z" fill="#45932F"/>
<path d="M623.137 231.339C620.708 229.169 619.487 226.535 619.487 223.437C619.487 220.339 620.708 217.694 623.137 215.513C625.566 213.332 628.515 212.242 631.973 212.242C635.442 212.242 638.402 213.332 640.831 215.513C643.261 217.694 644.481 220.339 644.481 223.437C644.481 226.535 643.261 229.169 640.831 231.339C638.402 233.509 635.442 234.599 631.973 234.599C628.515 234.599 625.577 233.509 623.137 231.339ZM636.854 228.122C638.165 226.87 638.82 225.305 638.82 223.437C638.82 221.569 638.165 220.004 636.854 218.73C635.543 217.467 633.916 216.83 631.973 216.83C630.041 216.83 628.425 217.467 627.114 218.73C625.803 219.993 625.148 221.569 625.148 223.437C625.148 225.305 625.803 226.87 627.114 228.122C628.425 229.374 630.041 230.001 631.973 230.001C633.928 230.001 635.543 229.374 636.854 228.122Z" fill="#45932F"/>
<path d="M657.191 224.139C657.191 226.061 657.587 227.518 658.389 228.522C659.191 229.526 660.355 230.023 661.903 230.023C663.541 230.023 664.773 229.515 665.598 228.511C666.423 227.507 666.83 225.985 666.83 223.967V212.934H669.643H672.479V233.898H669.858H667.236V232.031C665.462 233.736 663.27 234.6 660.66 234.6C657.881 234.6 655.666 233.758 654.028 232.085C652.389 230.411 651.564 228.134 651.564 225.273V212.944H654.378H657.214V224.139H657.191Z" fill="#45932F"/>
<path d="M692.446 237.841C694.66 237.841 696.468 237.172 697.858 235.833C699.067 234.667 699.756 233.177 699.903 231.385C697.587 233.523 694.841 234.592 691.677 234.592C688.48 234.592 685.745 233.501 683.485 231.331C681.226 229.162 680.096 226.528 680.096 223.429C680.096 220.331 681.226 217.686 683.485 215.505C685.745 213.325 688.48 212.234 691.689 212.234C694.818 212.224 697.474 213.238 699.643 215.279V212.936H705.101V229.96C705.101 233.728 703.925 236.74 701.575 239.018C699.225 241.296 696.106 242.429 692.22 242.429C689.406 242.429 686.943 241.803 684.83 240.54C682.717 239.277 681.293 237.593 680.582 235.498H687.135C687.53 236.211 688.208 236.783 689.169 237.204C690.152 237.636 691.237 237.841 692.446 237.841ZM692.615 216.79C690.672 216.79 689.045 217.427 687.734 218.701C686.423 219.975 685.768 221.551 685.768 223.429C685.768 225.297 686.423 226.862 687.734 228.136C689.045 229.399 690.66 230.036 692.592 230.036C694.536 230.036 696.163 229.399 697.485 228.136C698.807 226.873 699.462 225.297 699.462 223.408C699.462 221.529 698.807 219.953 697.496 218.679C696.186 217.427 694.558 216.79 692.615 216.79Z" fill="#45932F"/>
<path d="M712.885 205.938H715.698H718.534V214.401C720.286 212.922 722.32 212.199 724.658 212.22C727.427 212.22 729.63 213.052 731.268 214.725C732.907 216.398 733.72 218.665 733.72 221.515V233.876H730.907H728.071V222.616C728.071 220.706 727.675 219.259 726.884 218.277C726.093 217.283 724.93 216.787 723.404 216.787C721.777 216.787 720.557 217.294 719.755 218.298C718.952 219.302 718.546 220.824 718.546 222.832V233.865H715.732H712.896V205.938H712.885Z" fill="#45932F"/>
<path d="M758.307 205.938H761.2H765.437C771.041 205.938 775.459 207.157 778.657 209.597C781.854 212.037 783.459 215.383 783.459 219.648C783.459 224.074 781.911 227.561 778.826 230.087C775.742 232.624 771.505 233.887 766.115 233.887H761.188H758.296V205.938H758.307ZM764.092 229.083H766.115C769.798 229.083 772.634 228.284 774.646 226.697C776.646 225.099 777.651 222.854 777.651 219.939C777.651 217.014 776.589 214.747 774.465 213.16C772.341 211.562 769.335 210.774 765.426 210.774H764.081V229.083H764.092Z" fill="#45932F"/>
<path d="M791.437 205.938H797.086V210.547H791.437V205.938ZM791.437 212.933H794.25H797.086V233.898H794.273H791.437V212.933Z" fill="#45932F"/>
<path d="M816.961 237.841C819.176 237.841 820.984 237.172 822.373 235.833C823.582 234.667 824.272 233.177 824.419 231.385C822.102 233.523 819.357 234.592 816.193 234.592C812.995 234.592 810.261 233.501 808.001 231.331C805.741 229.162 804.611 226.528 804.611 223.429C804.611 220.331 805.741 217.686 808.001 215.505C810.261 213.325 812.995 212.234 816.204 212.234C819.334 212.224 821.989 213.238 824.159 215.279V212.936H829.616V229.96C829.616 233.728 828.441 236.74 826.091 239.018C823.741 241.296 820.622 242.429 816.735 242.429C813.922 242.429 811.459 241.803 809.346 240.54C807.233 239.277 805.809 237.593 805.097 235.498H811.651C812.046 236.211 812.724 236.783 813.684 237.204C814.656 237.636 815.741 237.841 816.961 237.841ZM817.119 216.79C815.176 216.79 813.549 217.427 812.238 218.701C810.928 219.975 810.272 221.551 810.272 223.429C810.272 225.297 810.928 226.862 812.238 228.136C813.549 229.399 815.165 230.036 817.097 230.036C819.04 230.036 820.667 229.399 821.989 228.136C823.311 226.873 823.967 225.297 823.967 223.408C823.967 221.529 823.311 219.953 822.001 218.679C820.69 217.427 819.063 216.79 817.119 216.79Z" fill="#45932F"/>
<path d="M837.356 205.938H843.006V210.547H837.356V205.938ZM837.356 212.933H840.17H843.006V233.898H840.193H837.356V212.933Z" fill="#45932F"/>
<path d="M852.768 233.9V217.372H850.057V212.946H852.768V205.918H858.418V212.946H861.83V217.372H858.418V233.9H852.768Z" fill="#45932F"/>
<path d="M868.01 205.938H873.659V210.547H868.01V205.938ZM868.01 212.933H870.823H873.659V233.898H870.846H868.01V212.933Z" fill="#45932F"/>
<path d="M891.558 218.604C891.422 218.01 891.162 217.567 890.767 217.276C890.371 216.984 889.885 216.833 889.275 216.833C888.631 216.833 888.1 216.995 887.693 217.33C887.287 217.664 887.083 218.096 887.083 218.625C887.083 219.133 887.343 219.532 887.852 219.845C888.36 220.158 889.343 220.504 890.789 220.892C893.252 221.572 895.026 222.414 896.077 223.418C897.128 224.422 897.648 225.772 897.648 227.445C897.648 229.55 896.868 231.267 895.309 232.605C893.75 233.944 891.75 234.602 889.309 234.602C886.846 234.602 884.801 233.933 883.196 232.584C881.592 231.234 880.733 229.475 880.62 227.294H886.405C886.575 228.179 886.914 228.848 887.422 229.313C887.931 229.777 888.597 230.004 889.411 230.004C890.179 230.004 890.823 229.809 891.309 229.431C891.795 229.054 892.055 228.557 892.055 227.952C892.055 227.305 891.829 226.797 891.377 226.441C890.925 226.085 890.044 225.729 888.744 225.372C886.134 224.66 884.27 223.796 883.14 222.792C882.021 221.799 881.468 220.482 881.468 218.841C881.468 216.898 882.213 215.311 883.705 214.08C885.196 212.85 887.106 212.234 889.433 212.234C891.479 212.234 893.23 212.839 894.688 214.059C896.145 215.279 896.947 216.79 897.072 218.604H891.558Z" fill="#45932F"/>
<path d="M915.149 234.599C911.929 234.599 909.172 233.509 906.901 231.339C904.63 229.169 903.488 226.535 903.488 223.437C903.488 220.339 904.63 217.694 906.901 215.513C909.172 213.332 911.929 212.242 915.171 212.242C918.301 212.242 920.957 213.246 923.126 215.254V212.944H928.312V233.909H925.725H923.115V231.62C920.923 233.585 918.256 234.578 915.149 234.599ZM916.075 216.787C914.098 216.787 912.46 217.424 911.138 218.698C909.816 219.972 909.149 221.548 909.149 223.426C909.149 225.294 909.804 226.859 911.138 228.133C912.46 229.396 914.098 230.033 916.064 230.033C918.03 230.033 919.691 229.396 921.013 228.133C922.346 226.87 923.013 225.294 923.013 223.405C923.013 221.526 922.346 219.95 921.024 218.676C919.691 217.424 918.042 216.787 916.075 216.787Z" fill="#45932F"/>
<path d="M937.795 233.9V217.372H935.083V212.946H937.795V205.918H943.444V212.946H946.857V217.372H943.444V233.9H937.795Z" fill="#45932F"/>
<path d="M953.036 205.938H958.686V210.547H953.036V205.938ZM953.036 212.933H955.85H958.686V233.898H955.872H953.036V212.933Z" fill="#45932F"/>
<path d="M969.555 231.339C967.126 229.169 965.905 226.535 965.905 223.437C965.905 220.339 967.126 217.694 969.555 215.513C971.984 213.332 974.933 212.242 978.391 212.242C981.86 212.242 984.82 213.332 987.249 215.513C989.679 217.694 990.899 220.339 990.899 223.437C990.899 226.535 989.679 229.169 987.249 231.339C984.82 233.509 981.86 234.599 978.391 234.599C974.933 234.599 971.995 233.509 969.555 231.339ZM983.272 228.122C984.583 226.87 985.238 225.305 985.238 223.437C985.238 221.569 984.583 220.004 983.272 218.73C981.961 217.467 980.334 216.83 978.391 216.83C976.459 216.83 974.843 217.467 973.532 218.73C972.221 219.993 971.566 221.569 971.566 223.437C971.566 225.305 972.221 226.87 973.532 228.122C974.843 229.374 976.459 230.001 978.391 230.001C980.346 230.001 981.961 229.374 983.272 228.122Z" fill="#45932F"/>
<path d="M998.153 212.936H1000.77H1003.4V214.739C1005.22 213.066 1007.4 212.234 1009.93 212.234C1012.71 212.234 1014.92 213.076 1016.55 214.75C1018.19 216.423 1019 218.69 1019 221.551V233.89H1016.19H1013.35V222.684C1013.35 220.763 1012.96 219.305 1012.15 218.312C1011.35 217.319 1010.19 216.822 1008.66 216.822C1007.03 216.822 1005.81 217.33 1005 218.334C1004.19 219.338 1003.78 220.86 1003.78 222.868V233.901H1000.97H998.131V212.936H998.153Z" fill="#45932F"/>
</svg>
